<?xml version="1.0" encoding="UTF-8" standalone="no"?>
<!-- Created with Inkscape (http://www.inkscape.org/) -->

<svg
   version="1.1"
   id="svg2"
   width="76.811264"
   height="76.277145"
   viewBox="0 0 76.811264 76.277145"
   xmlns="http://www.w3.org/2000/svg"
   xmlns:svg="http://www.w3.org/2000/svg">
  <defs
     id="defs6" />
  <g
     id="g8"
     transform="translate(-60.584225,-56.376877)">
    <path
       style="fill:#000000"
       d="m 60.584226,131.63681 c 0,-0.55 0.45,-1 1,-1 0.55,0 1,-2.25 1,-5 0,-2.75 -0.45,-5 -1,-5 -0.55,0 -1,-0.45 -1,-1 0,-0.55 2.25,-1 5,-1 h 5 l -0.0318,2.75 -0.0318,2.75 -1.328439,-1.75 c -1.779089,-2.34365 -3.607961,-2.21692 -3.607961,0.25 v 2 h 2 c 1.1,0 2,0.45 2,1 0,0.55 -0.9,1 -2,1 h -2 v 2 2 h 1.639757 c 0.901867,0 2.237555,-0.7875 2.968197,-1.75 l 1.328439,-1.75 0.0318,2.75 0.03181,2.75 h -5.5 c -3.025,0 -5.5,-0.45 -5.5,-1 z m 13.25,0.33772 c -1.767611,-0.71325 -1.558718,-4.33772 0.25,-4.33772 0.825,0 1.5,0.675 1.5,1.5 v 1.5 h 2 c 3.00843,0 2.402834,-2.5905 -0.928145,-3.97024 -3.479728,-1.44135 -4.455624,-3.44416 -3.001829,-6.16061 l 1.062854,-1.98596 3.18356,0.30841 3.18356,0.3084 v 1.91667 c 0,1.05416 -0.634207,2.12807 -1.40935,2.38645 l -1.409349,0.46978 0.627965,-1.63645 0.627964,-1.63645 h -1.968615 c -2.986166,0 -2.36509,1.56852 1.531385,3.8675 l 3.5,2.06505 v 1.83372 c 0,3.52645 -4.405345,5.32456 -8.75,3.57145 z m 10.25,-6.33772 v -7 h 3.55887 c 1.957379,0 4.386236,0.60498 5.397459,1.34441 l 1.838589,1.34441 -0.674124,2.68592 -0.674124,2.68593 -2.973335,0.59466 c -2.698708,0.53974 -4.353598,3.34467 -1.973335,3.34467 0.55,0 1,0.45 1,1 0,0.55 -1.2375,1 -2.75,1 h -2.75 z m 7,-2.5 c 0,-1.08494 -0.7875,-2.12427 -1.75,-2.30963 l -1.75,-0.33702 v 2.64665 2.64665 l 1.75,-0.33702 c 0.9625,-0.18536 1.75,-1.22469 1.75,-2.30963 z m 11.832094,3.88457 c -0.97356,-3.08848 -2.34655,-5.83662 -3.051101,-6.10698 -2.150946,-0.8254 -1.424871,-2.43735 0.944621,-2.09714 l 2.22561,0.31955 1.62281,4.4042 1.62281,4.40419 1.10938,-3.18237 c 0.61016,-1.75031 0.85523,-3.84469 0.54459,-4.6542 l -0.56479,-1.47182 h 8.10699 8.10699 v 2.5 c 0,1.375 -0.45,2.5 -1,2.5 -0.55,0 -1,-0.675 -1,-1.5 0,-0.825 -0.45,-1.5 -1,-1.5 -0.55,0 -1,2.25 -1,5 0,2.75 0.45,5 1,5 0.55,0 1,0.45 1,1 0,0.55 -1.575,1 -3.5,1 -1.925,0 -3.5,-0.45 -3.5,-1 0,-0.55 0.45,-1 1,-1 0.55,0 1,-2.25 1,-5 0,-2.75 -0.45,-5 -1,-5 -0.55,0 -1,0.675 -1,1.5 0,0.825 -0.45,1.5 -1,1.5 -0.55,0 -1,-0.675 -1,-1.5 0,-3.3002 -1.85006,-1.17625 -3.91973,4.5 -1.20324,3.3 -2.59054,6 -3.08289,6 -0.49235,0 -1.69173,-2.52694 -2.66529,-5.61543 z m 20.66791,5.16088 c 0,-0.25 1.125,-1.57954 2.5,-2.95454 3.02257,-3.02257 3.14091,-4.70092 0.5,-7.09091 -1.1,-0.99549 -2,-2.19023 -2,-2.65499 0,-1.54575 2.66518,-0.87246 4.47866,1.13141 1.95332,2.15839 3.77053,1.83653 2.87068,-0.50845 l -0.56332,-1.46797 h 2.60699 c 3.13256,0 3.2124,0.39459 0.60699,3 -2.61579,2.61579 -2.5229,3.95651 0.5,7.21657 3.20153,3.45271 3.14848,3.78343 -0.60699,3.78343 h -3.10699 l 0.54755,-1.42689 c 0.30115,-0.78478 -0.0606,-1.93164 -0.80398,-2.54856 l -1.35153,-1.12167 -0.59228,0.95832 c -0.32575,0.52707 -0.31766,1.67392 0.018,2.54856 l 0.61024,1.59024 h -3.10699 c -1.70889,0 -3.10703,-0.20455 -3.10703,-0.45455 z m -42.250004,-21.241 c -0.9625,-0.2481 -1.75,-1.12299 -1.75,-1.9442 v -1.49309 l 2.75,0.31642 2.75,0.31642 v 1.41667 c 0,1.60442 -1.194566,2.0465 -3.75,1.38778 z m 9.657913,-2.45345 c -0.797661,-1.29064 2.406338,-4.08383 3.739409,-3.25995 1.416532,0.87547 0.965012,2.27846 -1.086634,3.37647 l -1.939311,1.03789 z m -18.966783,-1.28368 -1.94113,-1.43268 1.132102,-1.14942 1.132102,-1.14942 2.117898,1.32264 c 2.348153,1.46645 2.848348,3.84156 0.809028,3.84156 -0.719879,0 -2.182379,-0.64471 -3.25,-1.43268 z m 27.51664,-9.317319 c -1.21291,-3.7125 -2.618715,-7.2 -3.124012,-7.75 -0.505296,-0.55 -3.712104,-1.93832 -7.126239,-3.08515 l -6.207519,-2.08514 v -1.393708 c 0,-1.755609 45.564174,-28.271835 46.673944,-27.162062 0.87187,0.871864 -5.87035,41.18712 -7.10945,42.51119 -0.40412,0.43183 -2.87125,-0.13067 -5.48253,-1.25 -2.61127,-1.11932 -5.08418,-2.03513 -5.49535,-2.03513 -0.41116,0 -2.20182,2.025 -3.97923,4.499999 -1.77741,2.475 -3.842,4.5 -4.58799,4.5 h -1.35633 z m 8.632934,-3.99264 c -0.6935,-0.6935 -2.5907,0.71554 -2.5907,1.9241 v 1.06342 l 1.52417,-1.26494 c 0.83829,-0.69572 1.31823,-1.47088 1.06653,-1.72258 z m 14.945,-12.38799 c 1.34262,-7.353156 2.44634,-13.999426 2.45271,-14.769491 0.006,-0.770064 -3.97918,4.177662 -8.85678,10.994946 l -8.86838,12.395065 6.11838,2.62481 c 3.3651,1.44364 6.25215,2.51214 6.41566,2.37443 0.16351,-0.13771 1.3958,-6.26661 2.73841,-13.61976 z m -19.13674,9.13544 c 0.60557,-1.11683 3.52691,-5.5123 6.49186,-9.767709 l 5.39081,-7.737105 -8.09064,7.926666 c -4.44986,4.359668 -7.957619,8.184668 -7.795018,8.499998 0.162598,0.31534 0.600618,1.42524 0.973378,2.46646 0.73084,2.04148 1.31505,1.77376 3.02961,-1.38831 z m 5.11809,-15.071161 10.98295,-11.066348 -16.19224,9.316348 -16.19224,9.316347 4.692238,1.672494 c 2.580731,0.91987 4.924912,1.70737 5.209292,1.75 0.28438,0.0426 5.45938,-4.90235 11.5,-10.988841 z"
       id="path293" />
  </g>
</svg>
